<svg xmlns="http://www.w3.org/2000/svg" width="18" height="13" viewBox="0 0 18 13">
    <path fill="#5DE191" d="M3.397 2.979C2.277 3.859 1.295 5.033.539 6.5c2.448 4.751 7.275 6.424 11.397 5.019l-1.72-1.722c-.368.132-.764.203-1.177.203-1.933 0-3.5-1.567-3.5-3.5 0-.413.072-.809.203-1.176L3.397 2.979zM6.142 1.48l1.721 1.722C8.231 3.07 8.627 3 9.039 3c1.933 0 3.5 1.567 3.5 3.5 0 .413-.071.809-.202 1.176l2.345 2.345c1.118-.88 2.101-2.054 2.857-3.521C15.091 1.749 10.265.076 6.142 1.481zm9.261 10.676L3.383.136l-.708.707 12.021 12.021.707-.707z"/>
</svg>
